<svg width="25" height="25" viewBox="0 0 25 25" fill="none" xmlns="http://www.w3.org/2000/svg">
<g id="ph:arrow-up-left-light">
<path id="Vector" d="M5.83594 19.1641C5.9458 19.2738 6.09473 19.3354 6.25 19.3354C6.40527 19.3354 6.5542 19.2738 6.66406 19.1641L18.1641 7.66406V16.4062C18.1641 16.5617 18.2258 16.7107 18.3357 16.8206C18.4456 16.9305 18.5946 16.9922 18.75 16.9922C18.9054 16.9922 19.0544 16.9305 19.1643 16.8206C19.2742 16.7107 19.3359 16.5617 19.3359 16.4062V6.25C19.3359 6.0946 19.2742 5.94556 19.1643 5.83568C19.0544 5.72579 18.9054 5.66406 18.75 5.66406H8.59375C8.43835 5.66406 8.28931 5.72579 8.17943 5.83568C8.06954 5.94556 8.00781 6.0946 8.00781 6.25C8.00781 6.4054 8.06954 6.55444 8.17943 6.66432C8.28931 6.7742 8.43835 6.83594 8.59375 6.83594H17.3359L5.83594 18.3359C5.72621 18.4458 5.66458 18.5947 5.66458 18.75C5.66458 18.9053 5.72621 19.0542 5.83594 19.1641Z" fill="#00558D"/>
</g>
</svg>
