<svg width="25.001450" height="21.875000" viewBox="0 0 25.0014 21.875" fill="none" xmlns="http://www.w3.org/2000/svg" xmlns:xlink="http://www.w3.org/1999/xlink">
	<desc>
			Created with Pixso.
	</desc>
	<defs/>
	<path id="Vector" d="M25.0014 10.1562C25.0014 15.7666 19.4057 20.3125 12.5014 20.3125C10.6899 20.3125 8.97118 20 7.41844 19.4385C6.83739 19.8633 5.89012 20.4443 4.76707 20.9326C3.5952 21.4404 2.18407 21.875 0.7827 21.875C0.465317 21.875 0.182114 21.6846 0.0600433 21.3916C-0.062027 21.0986 0.0063324 20.7666 0.226059 20.542L0.240707 20.5273C0.255356 20.5127 0.274887 20.4932 0.304184 20.459C0.357895 20.4004 0.440903 20.3076 0.543442 20.1807C0.743637 19.9365 1.01219 19.5752 1.28563 19.126C1.77391 18.3154 2.23778 17.251 2.33055 16.0547C0.865707 14.3945 0.00144958 12.3584 0.00144958 10.1562C0.00144958 4.5459 5.59715 0 12.5014 0C19.4057 0 25.0014 4.5459 25.0014 10.1562Z" fill="#DEDEDE" fill-opacity="1.000000" fill-rule="nonzero"/>
</svg>
