<svg width="18.000000" height="18.000000" viewBox="0 0 18 18" fill="none" xmlns="http://www.w3.org/2000/svg" xmlns:xlink="http://www.w3.org/1999/xlink">
	<desc>
			Created with Pixso.
	</desc>
	<defs/>
	<path id="Vector" d="M16.95 18C14.8667 18 12.8083 17.5457 10.775 16.637C8.74167 15.7283 6.89166 14.4409 5.22501 12.7749C3.55833 11.1084 2.271 9.2583 1.36301 7.2251C0.455002 5.19165 0.000671387 3.1333 0 1.05005C0 0.75 0.100006 0.5 0.300003 0.300049C0.5 0.100098 0.75 0 1.05 0L5.10001 0C5.33333 0 5.54167 0.0793457 5.72501 0.238037C5.90834 0.396729 6.01666 0.583984 6.05 0.800049L6.7 4.30005C6.73334 4.56665 6.72501 4.79175 6.675 4.9751C6.625 5.15845 6.53333 5.31665 6.39999 5.44995L3.97501 7.8999C4.30833 8.5166 4.70399 9.1123 5.162 9.68701C5.62 10.2617 6.12433 10.8159 6.675 11.3501C7.19167 11.8667 7.73334 12.3459 8.3 12.7881C8.86667 13.23 9.46667 13.634 10.1 14L12.45 11.6499C12.6 11.5 12.796 11.3875 13.038 11.312C13.28 11.2366 13.5173 11.2161 13.75 11.25L17.2 11.95C17.4333 12.0166 17.625 12.1377 17.775 12.313C17.925 12.4883 18 12.6841 18 12.8999L18 16.95C18 17.25 17.9 17.5 17.7 17.7C17.5 17.8999 17.25 18 16.95 18Z" fill="#FFFFFF" fill-opacity="1.000000" fill-rule="nonzero"/>
</svg>
