<svg width="25" height="25" viewBox="0 0 25 25" fill="none" xmlns="http://www.w3.org/2000/svg">
<g id="ep:arrow-down-bold">
<path id="Vector" d="M2.55625 8.26998C2.84926 7.97706 3.24662 7.8125 3.66094 7.8125C4.07526 7.8125 4.47261 7.97706 4.76562 8.26998L12.5 16.0044L20.2344 8.26998C20.5291 7.98536 20.9238 7.82787 21.3334 7.83143C21.7431 7.83499 22.135 7.99931 22.4247 8.28901C22.7144 8.57871 22.8787 8.97061 22.8823 9.38029C22.8859 9.78997 22.7284 10.1847 22.4438 10.4794L13.6047 19.3184C13.3117 19.6113 12.9143 19.7759 12.5 19.7759C12.0857 19.7759 11.6883 19.6113 11.3953 19.3184L2.55625 10.4794C2.26333 10.1863 2.09877 9.78899 2.09877 9.37467C2.09877 8.96035 2.26333 8.56299 2.55625 8.26998Z" fill="#00558D"/>
</g>
</svg>
