<svg width="51.000000" height="51.000000" viewBox="0 0 51 51" fill="none" xmlns="http://www.w3.org/2000/svg" xmlns:xlink="http://www.w3.org/1999/xlink">
	<desc>
			Created with Pixso.
	</desc>
	<defs>
		<clipPath id="clip67_1225">
			<rect id="ep:arrow-right-bold" width="25.000000" height="25.000000" transform="translate(13.000000 13.000000)" fill="white" fill-opacity="0"/>
		</clipPath>
	</defs>
	<circle id="Ellipse 1" cx="25.500000" cy="25.500000" r="25.000000" stroke="#CF1013" stroke-opacity="1.000000" stroke-width="1.000000"/>
	<rect id="ep:arrow-right-bold" width="25.000000" height="25.000000" transform="translate(13.000000 13.000000)" fill="#FFFFFF" fill-opacity="0"/>
	<g clip-path="url(#clip67_1225)">
		<path id="Vector" d="M21.2703 15.5561C20.9774 15.8491 20.8129 16.2465 20.8129 16.6608C20.8129 17.0751 20.9774 17.4725 21.2703 17.7655L29.0047 25.4999L21.2703 33.2343C20.9857 33.5289 20.8282 33.9236 20.8318 34.3333C20.8353 34.743 20.9997 35.1349 21.2894 35.4246C21.5791 35.7143 21.9709 35.8786 22.3807 35.8821C22.7903 35.8857 23.1851 35.7282 23.4797 35.4436L32.3188 26.6046C32.6117 26.3115 32.7762 25.9142 32.7762 25.4999C32.7762 25.0856 32.6117 24.6882 32.3188 24.3952L23.4797 15.5561C23.1867 15.2632 22.7894 15.0986 22.3751 15.0986C21.9607 15.0986 21.5634 15.2632 21.2703 15.5561Z" fill="#CF1013" fill-opacity="1.000000" fill-rule="nonzero"/>
	</g>
</svg>
