<svg width="25" height="16" viewBox="0 0 25 16" fill="none" xmlns="http://www.w3.org/2000/svg">
<g id="_&#195;&#144;&#194;&#161;&#195;&#144;&#194;&#187;&#195;&#144;&#194;&#190;&#195;&#144;&#194;&#185;_1" clip-path="url(#clip0_67_917)">
<path id="Vector" fill-rule="evenodd" clip-rule="evenodd" d="M12.5 0.0673828C5.59639 0.0673828 0 3.61886 0 8.00036C0 12.3819 5.59639 15.9333 12.5 15.9333C19.4036 15.9333 25 12.3819 25 8.00036C25 3.61886 19.4036 0.0673828 12.5 0.0673828ZM3.23798 4.86044C3.58183 6.29369 6.08414 7.48347 9.47064 7.93647C9.47007 8.00382 9.46949 8.07116 9.46949 8.13908C9.46949 11.538 10.4513 14.3896 11.7753 15.1649C6.28236 14.903 1.94926 11.8851 1.94926 8.2001C1.94926 6.99018 2.4162 5.85221 3.23798 4.86044ZM10.7131 8.06541C11.2916 8.10915 11.8886 8.13218 12.5 8.13218C13.1114 8.13218 13.7084 8.10915 14.2869 8.06541C14.2048 10.5866 13.4362 12.5626 12.5 12.5626C11.5638 12.5626 10.7952 10.5866 10.7131 8.06541ZM15.5294 7.93589C18.9927 7.47311 21.5309 6.23901 21.7817 4.76259C22.6549 5.77738 23.153 6.95046 23.153 8.2001C23.153 11.9099 18.7616 14.9439 13.216 15.1695C14.544 14.4017 15.5305 11.5449 15.5305 8.13851C15.5305 8.07059 15.5305 8.00324 15.5294 7.93589ZM13.583 1.38034C17.0452 1.5559 19.6989 2.55975 19.6989 3.77197C19.6989 4.76201 17.9288 5.61275 15.3941 5.9869C15.1179 3.86867 14.4452 2.16834 13.583 1.38034ZM14.21 6.12159C13.6616 6.16649 13.0889 6.19009 12.4994 6.19009C11.91 6.19009 11.3373 6.16649 10.7888 6.12159C11.0188 4.12252 11.6979 2.67429 12.4994 2.67429C13.301 2.67429 13.9794 4.12309 14.21 6.12159ZM9.60529 5.9869C7.07062 5.61275 5.30051 4.76144 5.30051 3.77197C5.30051 3.36272 5.60275 2.97764 6.13615 2.63976C6.76202 2.32605 7.44221 2.05725 8.16632 1.84024C9.09905 1.60367 10.2086 1.44135 11.4164 1.38034C10.5542 2.16834 9.88153 3.86867 9.60529 5.9869Z" fill="#2A2A2A"/>
</g>
<defs>
<clipPath id="clip0_67_917">
<rect width="25" height="15.8654" fill="white" transform="translate(0 0.0673828)"/>
</clipPath>
</defs>
</svg>
