<svg width="20.099976" height="17.169922" viewBox="0 0 20.1 17.1699" fill="none" xmlns="http://www.w3.org/2000/svg" xmlns:xlink="http://www.w3.org/1999/xlink">
	<desc>
			Created with Pixso.
	</desc>
	<defs/>
	<path id="Vector" d="M20.08 1.7439C20.1236 1.47925 20.0955 1.20776 19.9985 0.95752C19.9015 0.70752 19.7392 0.488037 19.5285 0.322021C19.3178 0.155762 19.0665 0.0493164 18.8006 0.0134277C18.5348 -0.0224609 18.2642 0.0136719 18.017 0.11792L0.917023 7.31787C-0.274979 7.81982 -0.335983 9.54395 0.917023 10.064C2.15773 10.5813 3.41653 11.0544 4.69102 11.4819C5.85902 11.8679 7.13301 12.2249 8.15402 12.3259C8.43301 12.6599 8.78401 12.981 9.14201 13.2759C9.68903 13.7258 10.347 14.189 11.027 14.6328C12.389 15.5229 13.9 16.374 14.918 16.928C16.135 17.5879 17.592 16.8279 17.81 15.501L20.08 1.7439ZM2.83401 8.67993L17.958 2.31299L15.84 15.1528C14.841 14.6099 13.402 13.7969 12.12 12.959C11.5292 12.5796 10.9587 12.1694 10.411 11.73C10.2646 11.6104 10.1225 11.4856 9.98502 11.356L13.946 7.396C14.1337 7.2085 14.2391 6.9541 14.2392 6.68872C14.2393 6.42358 14.134 6.16895 13.9465 5.98145C13.759 5.7937 13.5046 5.68823 13.2394 5.68823C12.9741 5.68823 12.7197 5.79346 12.532 5.98096L8.19502 10.3179C7.46101 10.2239 6.43901 9.9519 5.31702 9.58203C4.48172 9.30371 3.65308 9.00293 2.83401 8.67993Z" fill="#FFFFFF" fill-opacity="1.000000" fill-rule="evenodd"/>
</svg>
