<svg width="23.436829" height="17.187500" viewBox="0 0 23.4368 17.1875" fill="none" xmlns="http://www.w3.org/2000/svg" xmlns:xlink="http://www.w3.org/1999/xlink">
	<desc>
			Created with Pixso.
	</desc>
	<defs/>
	<path id="Vector" d="M23.3903 8.32812C22.4714 5.95129 20.8762 3.89575 18.8018 2.41565C16.7275 0.935547 14.2649 0.0957031 11.7184 0C9.17195 0.0957031 6.70935 0.935547 4.63498 2.41565C2.56062 3.89575 0.965424 5.95129 0.0465393 8.32812C-0.0155182 8.49976 -0.0155182 8.68774 0.0465393 8.85938C0.965424 11.2362 2.56062 13.2917 4.63498 14.7719C6.70935 16.252 9.17195 17.0918 11.7184 17.1875C14.2649 17.0918 16.7275 16.252 18.8018 14.7719C20.8762 13.2917 22.4714 11.2362 23.3903 8.85938C23.4523 8.68774 23.4523 8.49976 23.3903 8.32812ZM11.7184 13.6719C10.7141 13.6719 9.73225 13.374 8.89716 12.816C8.06207 12.2581 7.41119 11.465 7.02684 10.5371C6.64249 9.60913 6.54193 8.58813 6.73787 7.60303C6.93381 6.61804 7.41745 5.71313 8.12764 5.00293C8.83783 4.29272 9.74266 3.80908 10.7277 3.61316C11.7128 3.41724 12.7338 3.51782 13.6617 3.90222C14.5896 4.2865 15.3827 4.93738 15.9407 5.77246C16.4987 6.60754 16.7965 7.58936 16.7965 8.59375C16.7945 9.93994 16.2588 11.2303 15.3069 12.1823C14.355 13.1342 13.0646 13.6698 11.7184 13.6719Z" fill="#DEDEDE" fill-opacity="1.000000" fill-rule="nonzero"/>
</svg>
