<svg width="40" height="40" viewBox="0 0 40 40" fill="none" xmlns="http://www.w3.org/2000/svg">
<g id="formkit:whatsapp">
<path id="Vector" d="M34.875 10.5996C29.65 2.49962 18.95 0.0996175 10.675 5.12462C2.6 10.1496 2.6226e-06 21.0996 5.225 29.1746L5.65 29.8246L3.9 36.3746L10.45 34.6246L11.1 35.0496C13.925 36.5746 17 37.4496 20.05 37.4496C23.325 37.4496 26.6 36.5746 29.425 34.8246C37.5 29.5746 39.9 18.8496 34.875 10.5496V10.5996ZM30.3 27.4496C29.425 28.7496 28.325 29.6246 26.8 29.8496C25.925 29.8496 24.825 30.2746 20.475 28.5496C16.775 26.7996 13.7 23.9496 11.525 20.6746C10.225 19.1496 9.55 17.1746 9.35 15.1996C9.35 13.4496 10 11.9246 11.1 10.8246C11.525 10.3996 11.975 10.1746 12.4 10.1746H13.5C13.925 10.1746 14.375 10.1746 14.6 11.0496C15.025 12.1496 16.125 14.7746 16.125 14.9996C16.35 15.2246 16.25 16.8996 15.25 17.8496C14.7 18.4746 14.6 18.4996 14.825 18.9496C15.7 20.2496 16.8 21.5746 17.875 22.6746C19.175 23.7746 20.5 24.6496 22.025 25.2996C22.45 25.5246 22.9 25.5246 23.125 25.0746C23.35 24.6496 24.425 23.5496 24.875 23.0996C25.3 22.6746 25.525 22.6746 25.975 22.8746L29.475 24.6246C29.9 24.8496 30.35 25.0496 30.575 25.2746C30.8 25.9246 30.8 26.7996 30.35 27.4496H30.3Z" fill="#fff"/>
</g>
</svg>
